<svg xmlns="http://www.w3.org/2000/svg" version="1.1" xmlns:xlink="http://www.w3.org/1999/xlink" xmlns:svgjs="http://svgjs.dev/svgjs" width="1500" height="1500" viewBox="0 0 1500 1500"><rect width="1500" height="1500" fill="#f8f8f8"></rect><g transform="matrix(0.6666666666666666,0,0,0.6666666666666666,248.87299314430004,213.94301075268822)"><svg viewBox="0 0 232 248" data-background-color="#f8f8f8" preserveAspectRatio="xMidYMid meet" height="1603" width="1500" xmlns="http://www.w3.org/2000/svg" xmlns:xlink="http://www.w3.org/1999/xlink"><g id="tight-bounds" transform="matrix(1,0,0,1,0.26146559052239127,0.4000000000000057)"><svg viewBox="0 0 231.4770688189552 247.2" height="247.2" width="231.4770688189552"><g><svg viewBox="0 0 395.52 422.3854418878558" height="247.2" width="231.4770688189552"><g transform="matrix(1,0,0,1,0,272.4620110446662)"><svg viewBox="0 0 395.52 149.92343084318955" height="149.92343084318955" width="395.52"><g id="textblocktransform"><svg viewBox="0 0 395.52 149.92343084318955" height="149.92343084318955" width="395.52" id="textblock"><g><svg viewBox="0 0 395.52 111.43346086956521" height="111.43346086956521" width="395.52"><g transform="matrix(1,0,0,1,0,0)"><svg width="395.52" viewBox="1.88 -33.33 119.77000000000001 33.75" height="111.43346086956521" data-palette-color="#61777f"><g class="wordmark-text-0" data-fill-palette-color="primary" id="text-0"><path d="M12.85 0.42L12.85 0.42Q9.83 0.42 7.33-1.04 4.83-2.5 3.35-4.97 1.88-7.43 1.88-10.42L1.88-10.42Q1.88-13.44 3.35-15.89 4.83-18.33 7.33-19.79 9.83-21.25 12.85-21.25L12.85-21.25Q15.9-21.25 18.39-19.79 20.87-18.33 22.34-15.89 23.82-13.44 23.82-10.42L23.82-10.42Q23.82-7.43 22.34-4.97 20.87-2.5 18.39-1.04 15.9 0.42 12.85 0.42ZM12.85-3.13L12.85-3.13Q14.86-3.13 16.49-4.11 18.13-5.1 19.1-6.75 20.07-8.4 20.07-10.42L20.07-10.42Q20.07-12.43 19.1-14.08 18.13-15.73 16.49-16.72 14.86-17.71 12.85-17.71L12.85-17.71Q10.83-17.71 9.2-16.72 7.57-15.73 6.6-14.08 5.63-12.43 5.63-10.42L5.63-10.42Q5.63-8.4 6.6-6.75 7.57-5.1 9.2-4.11 10.83-3.13 12.85-3.13ZM32.78 0L29.03 0 29.03-20.83 32.5-20.83 32.5-17.01Q33.61-18.85 35.45-19.95 37.29-21.04 39.82-21.04L39.82-21.04 40.76-17.29Q40.1-17.5 39.23-17.5L39.23-17.5Q36.32-17.5 34.55-15.64 32.78-13.78 32.78-10.35L32.78-10.35 32.78 0ZM54.23 0.42L54.23 0.42Q51.18 0.42 48.68-1.04 46.18-2.5 44.68-4.97 43.19-7.43 43.19-10.42L43.19-10.42Q43.19-13.4 44.68-15.87 46.18-18.33 48.68-19.79 51.18-21.25 54.23-21.25L54.23-21.25Q56.49-21.25 58.47-20.45 60.45-19.65 61.94-18.33L61.94-18.33 60.79-13.61Q59.93-15.35 58.17-16.53 56.42-17.71 54.2-17.71L54.2-17.71Q52.18-17.71 50.53-16.72 48.88-15.73 47.91-14.08 46.94-12.43 46.94-10.42L46.94-10.42Q46.94-8.44 47.91-6.77 48.88-5.1 50.53-4.11 52.18-3.13 54.2-3.13L54.2-3.13Q56.42-3.13 58.17-4.27 59.93-5.42 60.79-7.22L60.79-7.22 61.94-2.5Q60.45-1.18 58.47-0.38 56.49 0.42 54.23 0.42ZM70.27 0L66.52 0 66.52-33.33 70.27-33.33 70.27-17.88Q71.45-19.51 73.19-20.38 74.92-21.25 76.9-21.25L76.9-21.25Q79.12-21.25 81.02-20.16 82.91-19.06 84.09-17 85.27-14.93 85.27-11.98L85.27-11.98 85.27 0 81.52 0 81.52-11.46Q81.52-13.92 80.04-15.82 78.57-17.71 75.9-17.71L75.9-17.71Q73.71-17.71 71.99-16.13 70.27-14.55 70.27-11.56L70.27-11.56 70.27 0ZM95.27 0L91.52 0 91.52-20.83 95.27-20.83 95.27 0ZM93.39-24.58L93.39-24.58Q92.35-24.58 91.62-25.31 90.89-26.04 90.89-27.08L90.89-27.08Q90.89-28.16 91.62-28.87 92.35-29.58 93.39-29.58L93.39-29.58Q94.47-29.58 95.18-28.87 95.89-28.16 95.89-27.08L95.89-27.08Q95.89-26.04 95.18-25.31 94.47-24.58 93.39-24.58ZM110.86 0.28L110.86 0.28Q108.01 0.28 105.65-1.16 103.29-2.6 101.88-5.03 100.47-7.47 100.47-10.42L100.47-10.42Q100.47-13.37 101.88-15.8 103.29-18.23 105.65-19.67 108.01-21.11 110.86-21.11L110.86-21.11Q112.9-21.11 114.71-20.38 116.52-19.65 117.9-18.37L117.9-18.37 117.9-33.33 121.65-33.33 121.65 0 118.18 0 118.18-2.74Q116.79-1.35 114.9-0.54 113.01 0.28 110.86 0.28ZM111.34-3.13L111.34-3.13Q113.32-3.13 114.94-4.11 116.55-5.1 117.5-6.75 118.46-8.4 118.46-10.42L118.46-10.42Q118.46-12.43 117.5-14.08 116.55-15.73 114.94-16.72 113.32-17.71 111.34-17.71L111.34-17.71Q109.36-17.71 107.75-16.72 106.13-15.73 105.18-14.08 104.22-12.43 104.22-10.42L104.22-10.42Q104.22-8.4 105.18-6.75 106.13-5.1 107.75-4.11 109.36-3.13 111.34-3.13Z" fill="#61777f" data-fill-palette-color="primary"></path></g></svg></g></svg></g><g transform="matrix(1,0,0,1,41.52959999999999,137.7402265778087)"><svg viewBox="0 0 312.4608 12.183204265380871" height="12.183204265380871" width="312.4608"><g transform="matrix(1,0,0,1,0,0)"><svg width="312.4608" viewBox="0 -31.74 1053.06 41.07" height="12.183204265380871" data-palette-color="#000000"><path d="M19.19 0L30.27 0Q30.27-1.12 29.49-1.22L29.49-1.22Q29.25-1.27 29-1.27L29-1.27 27.39-1.27 16.16-29.3 13.96-29.3 3.08-1.27 0-1.27 0 0 8.74 0Q8.74-1.12 8.01-1.22L8.01-1.22Q7.76-1.27 7.52-1.27L7.52-1.27 5.03-1.27 8.69-10.74 18.8-10.74 22.46-1.27 19.19-1.27 19.19 0ZM13.72-23.83L18.21-12.16 9.23-12.16 13.72-23.83ZM48.39-5.08L48.83 0 56.15 0Q56.15-1.03 55.52-1.17L55.52-1.17Q55.27-1.22 54.98-1.22L54.98-1.22 52.54-1.22 52.49-31.74 43.7-31.74 43.7-30.52 48.29-30.52 48.29-18.85Q45.85-21.34 41.94-21.34L41.94-21.34Q36.77-21.34 33.98-16.89L33.98-16.89Q32.13-13.82 32.13-9.91L32.13-9.91Q32.13-3.91 35.98-1.07L35.98-1.07Q38.13 0.49 40.77 0.49L40.77 0.49Q46.14 0.39 48.39-5.08L48.39-5.08ZM36.77-10.5L36.77-10.5Q36.77-17.33 40.28-19.38L40.28-19.38Q41.4-20.07 42.82-20.07L42.82-20.07Q46.29-20.07 47.7-16.21L47.7-16.21Q48.44-14.16 48.44-11.43L48.44-11.43Q48.44-5.27 45.46-2.69L45.46-2.69Q44.04-1.51 42.23-1.51L42.23-1.51Q38.47-1.51 37.25-6.3L37.25-6.3Q36.77-8.15 36.77-10.5ZM63.86-19.58L67.23-19.58 67.23-20.8 57.42-20.8 57.42-19.58 59.57-19.58 65.52-3.22Q66.55-0.44 67.62 0L67.62 0Q68.21 0.24 69.09 0.24L69.09 0.24 69.97 0.24 76.85-17.92Q77.44-19.34 78.22-19.53L78.22-19.53Q78.46-19.58 78.71-19.58L78.71-19.58Q79.68-19.58 79.83-20.12L79.83-20.12Q79.88-20.36 79.88-20.8L79.88-20.8 72.31-20.8 72.31-19.58 76.02-19.58 69.92-3.27 63.86-19.58ZM99.06 0.49L99.06 0.49Q102.58 0.49 103.26-3.03L103.26-3.03Q103.36-3.76 103.41-4.59L103.41-4.59 102.14-4.64Q101.8-1.12 100.29-1.07L100.29-1.07Q99.06-1.17 99.02-3.56L99.02-3.56 99.02-13.87Q98.92-21.29 90.96-21.34L90.96-21.34Q85.3-21.34 83.44-18.75L83.44-18.75Q82.85-17.92 82.85-17.09L82.85-17.09Q82.85-15.53 84.32-15.19L84.32-15.19Q84.66-15.14 84.95-15.14L84.95-15.14Q86.27-15.14 86.86-16.7L86.86-16.7Q87.54-18.6 87.69-18.85L87.69-18.85Q88.62-20.12 90.47-20.12L90.47-20.12Q94.82-20.02 94.87-15.04L94.87-15.04 94.87-11.96Q82.71-11.91 81.68-6.35L81.68-6.35Q81.58-5.81 81.58-5.18L81.58-5.18Q81.58-1.32 84.95 0L84.95 0Q86.22 0.49 87.69 0.49L87.69 0.49Q91.25 0.49 93.6-1.95L93.6-1.95Q94.47-2.88 94.91-3.96L94.91-3.96Q95.55 0.44 99.06 0.49ZM89.49-1.51L89.49-1.51Q86.42-1.51 85.98-4.93L85.98-4.93Q85.93-5.42 85.93-5.96L85.93-5.96Q85.93-9.23 89.54-10.11L89.54-10.11Q91.45-10.55 94.87-10.6L94.87-10.6 94.87-6.54Q94.04-3.17 91.35-1.9L91.35-1.9Q90.37-1.51 89.49-1.51ZM114.69-1.22L114.69-1.22 112.69-1.22 112.69-11.96Q112.78-16.41 115.71-18.36L115.71-18.36Q116.98-19.14 118.25-19.14L118.25-19.14Q121.23-19.14 122.21-16.31L122.21-16.31Q122.55-15.23 122.55-13.96L122.55-13.96 122.55-4.1Q122.55-1.9 121.28-1.46L121.28-1.46Q120.6-1.22 119.18-1.22L119.18-1.22 119.18 0 130.21 0Q130.21-1.07 129.48-1.17L129.48-1.17Q129.29-1.22 128.99-1.22L128.99-1.22 126.7-1.22 126.7-13.43Q126.7-18.55 123.18-20.51L123.18-20.51Q121.67-21.34 119.96-21.34L119.96-21.34Q116.35-21.34 113.95-18.41L113.95-18.41Q113.12-17.43 112.64-16.21L112.64-16.21 112.44-20.8 105.02-20.8 105.02-19.58 108.53-19.58 108.53-4.1Q108.53-1.86 107.17-1.42L107.17-1.42Q106.44-1.22 105.02-1.22L105.02-1.22 105.02 0 115.91 0Q115.91-1.07 115.18-1.17L115.18-1.17Q114.98-1.22 114.69-1.22ZM133.19-10.25L133.19-10.25Q133.19-4.05 137.73-1.17L137.73-1.17Q140.37 0.49 143.79 0.49L143.79 0.49Q148.91 0.49 151.5-3.03L151.5-3.03Q152.14-3.86 152.53-4.79L152.53-4.79 151.26-5.18Q149.55-1.61 145.69-0.98L145.69-0.98Q145.06-0.88 144.42-0.88L144.42-0.88Q140.81-0.88 139-4.59L139-4.59Q137.83-7.03 137.83-10.55L137.83-10.55Q137.83-18.12 141.88-19.73L141.88-19.73Q142.86-20.12 143.93-20.12L143.93-20.12Q146.47-20.12 147.01-18.02L147.01-18.02Q147.11-17.68 147.2-16.85L147.2-16.85Q147.5-14.79 148.33-14.31L148.33-14.31Q148.82-14.01 149.55-13.96L149.55-13.96Q151.4-13.92 151.84-15.48L151.84-15.48Q151.94-15.82 151.94-16.11L151.94-16.11Q151.94-18.51 148.91-20.12L148.91-20.12Q146.57-21.34 143.74-21.34L143.74-21.34Q137.59-21.34 134.8-16.6L134.8-16.6Q133.19-13.82 133.19-10.25ZM164.98-20.12L164.98-20.12Q168.3-20.12 169.27-17.09L169.27-17.09Q169.57-16.16 169.57-15.14L169.57-15.14Q169.57-12.74 167.42-12.21L167.42-12.21Q166.2-11.91 164.05-11.96L164.05-11.96 159.26-12.11Q159.46-17.87 162.78-19.58L162.78-19.58Q163.8-20.12 164.98-20.12ZM173.62-4.74L173.62-4.74 172.4-5.18Q170.83-1.76 167.42-1.03L167.42-1.03Q166.64-0.88 165.9-0.88L165.9-0.88Q160.73-0.88 159.56-7.42L159.56-7.42Q159.31-8.94 159.26-10.74L159.26-10.74 164.88-10.64Q171.13-10.55 172.84-11.91L172.84-11.91Q173.96-12.89 173.96-14.55L173.96-14.55Q173.96-18.02 170.44-20.02L170.44-20.02Q168-21.34 164.88-21.34L164.88-21.34Q158.97-21.34 156.19-16.6L156.19-16.6Q154.62-13.87 154.62-10.3L154.62-10.3Q154.62-4.05 159.16-1.12L159.16-1.12Q161.75 0.49 165.02 0.49L165.02 0.49Q170.49 0.49 172.98-3.47L172.98-3.47Q173.32-4.1 173.62-4.74ZM193.63-5.08L194.07 0 201.4 0Q201.4-1.03 200.76-1.17L200.76-1.17Q200.52-1.22 200.23-1.22L200.23-1.22 197.79-1.22 197.74-31.74 188.95-31.74 188.95-30.52 193.54-30.52 193.54-18.85Q191.1-21.34 187.19-21.34L187.19-21.34Q182.01-21.34 179.23-16.89L179.23-16.89Q177.38-13.82 177.38-9.91L177.38-9.91Q177.38-3.91 181.23-1.07L181.23-1.07Q183.38 0.49 186.02 0.49L186.02 0.49Q191.39 0.39 193.63-5.08L193.63-5.08ZM182.01-10.5L182.01-10.5Q182.01-17.33 185.53-19.38L185.53-19.38Q186.65-20.07 188.07-20.07L188.07-20.07Q191.54-20.07 192.95-16.21L192.95-16.21Q193.68-14.16 193.68-11.43L193.68-11.43Q193.68-5.27 190.71-2.69L190.71-2.69Q189.29-1.51 187.48-1.51L187.48-1.51Q183.72-1.51 182.5-6.3L182.5-6.3Q182.01-8.15 182.01-10.5ZM238.75-2.2L238.75-2.2Q238.75-0.15 239.43 0.15L239.43 0.15Q239.72 0.24 240.31 0.24L240.31 0.24 240.31-9.08 239.04-9.08Q236.6-0.93 229.23-0.88L229.23-0.88Q222.44-0.88 220.49-8.4L220.49-8.4Q219.75-11.18 219.75-14.7L219.75-14.7Q219.75-24.02 224.83-27.15L224.83-27.15Q226.88-28.42 229.42-28.42L229.42-28.42Q236.55-28.32 238.89-20.41L238.89-20.41 240.16-20.41 240.02-29.54Q238.89-29.54 238.65-28.81L238.65-28.81Q238.55-28.22 238.55-27.05L238.55-27.05Q235.77-29.2 231.18-29.69L231.18-29.69Q230.15-29.79 229.13-29.79L229.13-29.79Q221.32-29.79 217.17-24.07L217.17-24.07Q214.28-20.02 214.28-14.75L214.28-14.75Q214.28-8.35 218.29-4L218.29-4Q222.49 0.49 229.27 0.49L229.27 0.49Q234.25 0.44 238.75-2.2ZM254.47-20.12L254.47-20.12Q257.79-20.12 258.76-17.09L258.76-17.09Q259.06-16.16 259.06-15.14L259.06-15.14Q259.06-12.74 256.91-12.21L256.91-12.21Q255.69-11.91 253.54-11.96L253.54-11.96 248.75-12.11Q248.95-17.87 252.27-19.58L252.27-19.58Q253.3-20.12 254.47-20.12ZM263.11-4.74L263.11-4.74 261.89-5.18Q260.33-1.76 256.91-1.03L256.91-1.03Q256.13-0.88 255.39-0.88L255.39-0.88Q250.22-0.88 249.05-7.42L249.05-7.42Q248.8-8.94 248.75-10.74L248.75-10.74 254.37-10.64Q260.62-10.55 262.33-11.91L262.33-11.91Q263.45-12.89 263.45-14.55L263.45-14.55Q263.45-18.02 259.94-20.02L259.94-20.02Q257.49-21.34 254.37-21.34L254.37-21.34Q248.46-21.34 245.68-16.6L245.68-16.6Q244.12-13.87 244.12-10.3L244.12-10.3Q244.12-4.05 248.66-1.12L248.66-1.12Q251.24 0.49 254.52 0.49L254.52 0.49Q259.98 0.49 262.48-3.47L262.48-3.47Q262.82-4.1 263.11-4.74ZM276.93-1.22L276.93-1.22 274.29-1.22 274.29-31.74 266.43-31.74 266.43-30.52 270.14-30.52 270.14-4.1Q270.14-1.9 268.82-1.46L268.82-1.46Q268.04-1.22 266.43-1.22L266.43-1.22 266.43 0 278.1 0Q278.1-1.07 277.41-1.17L277.41-1.17Q277.17-1.22 276.93-1.22ZM291.57-20.12L291.57-20.12Q294.89-20.12 295.87-17.09L295.87-17.09Q296.16-16.16 296.16-15.14L296.16-15.14Q296.16-12.74 294.01-12.21L294.01-12.21Q292.79-11.91 290.64-11.96L290.64-11.96 285.86-12.11Q286.05-17.87 289.37-19.58L289.37-19.58Q290.4-20.12 291.57-20.12ZM300.21-4.74L300.21-4.74 298.99-5.18Q297.43-1.76 294.01-1.03L294.01-1.03Q293.23-0.88 292.5-0.88L292.5-0.88Q287.32-0.88 286.15-7.42L286.15-7.42Q285.91-8.94 285.86-10.74L285.86-10.74 291.47-10.64Q297.72-10.55 299.43-11.91L299.43-11.91Q300.56-12.89 300.56-14.55L300.56-14.55Q300.56-18.02 297.04-20.02L297.04-20.02Q294.6-21.34 291.47-21.34L291.47-21.34Q285.57-21.34 282.78-16.6L282.78-16.6Q281.22-13.87 281.22-10.3L281.22-10.3Q281.22-4.05 285.76-1.12L285.76-1.12Q288.35 0.49 291.62 0.49L291.62 0.49Q297.09 0.49 299.58-3.47L299.58-3.47Q299.92-4.1 300.21-4.74ZM314.76-1.22L314.76-1.22 311.25-1.22 311.25-11.96Q311.59-16.16 314.08-18.26L314.08-18.26Q314.91-18.95 315.49-18.95L315.49-18.95Q316.23-18.95 316.91-17.72L316.91-17.72Q317.69-16.36 318.47-16.11L318.47-16.11Q318.82-16.02 319.16-16.02L319.16-16.02Q320.77-16.02 321.26-17.53L321.26-17.53Q321.35-17.92 321.35-18.26L321.35-18.26Q321.35-20.51 319.11-21L319.11-21Q318.62-21.09 318.08-21.09L318.08-21.09Q315.06-21.09 312.71-18.55L312.71-18.55Q311.74-17.48 311.15-16.11L311.15-16.11 310.95-20.8 303.58-20.8 303.58-19.58 307.05-19.58 307.05-4.1Q307.05-1.86 305.73-1.42L305.73-1.42Q305.05-1.22 303.58-1.22L303.58-1.22 303.58 0 315.98 0Q315.98-1.07 315.25-1.17L315.25-1.17Q315.06-1.22 314.76-1.22ZM326.87 7.76L326.87 7.76Q326.09 7.76 325.65 6.54L325.65 6.54Q325.06 5.03 324.53 4.69L324.53 4.69Q324.09 4.39 323.5 4.39L323.5 4.39Q321.89 4.39 321.6 5.76L321.6 5.76Q321.55 6.01 321.55 6.2L321.55 6.2Q321.55 8.01 323.7 8.89L323.7 8.89Q324.77 9.33 325.94 9.33L325.94 9.33Q329.8 9.33 332.63 4.64L332.63 4.64Q333.75 2.78 334.83 0.15L334.83 0.15 342.05-17.92Q342.54-19.29 343.18-19.48L343.18-19.48Q343.47-19.53 343.86-19.53L343.86-19.53Q344.89-19.53 345.03-20.07L345.03-20.07Q345.08-20.36 345.08-20.8L345.08-20.8 337.66-20.8 337.66-19.53 341.22-19.53 335.12-4.35 328.63-19.53 331.85-19.53 331.85-20.8 321.94-20.8 321.94-19.53 324.23-19.53 333.17 0.2Q330.53 6.49 328.19 7.52L328.19 7.52Q327.5 7.76 326.87 7.76ZM393.03-28.03L393.03-29.3 384.68-29.3 374.52-6.01 363.39-29.3 356.06-29.3 356.06-28.03 359.97-28.03 359.97-1.27 356.06-1.27 356.06 0 365.83 0Q365.83-1.07 365.05-1.22L365.05-1.22Q364.8-1.27 364.56-1.27L364.56-1.27 361.92-1.27 361.92-21.78 372.57 0.29 373.59 0.29 384.68-24.76 384.68-1.27 380.77-1.27 380.77 0 393.03 0Q393.03-1.07 392.25-1.22L392.25-1.22Q392-1.27 391.76-1.27L391.76-1.27 389.12-1.27 389.12-28.03 393.03-28.03ZM400.79-10.45L400.79-10.45Q400.84-20.07 406.84-20.12L406.84-20.12Q412.85-20.02 412.9-10.64L412.9-10.64Q412.85-0.78 406.94-0.73L406.94-0.73Q400.84-0.83 400.79-10.45ZM406.99-21.34L406.99-21.34Q402.06-21.34 398.88-17.97L398.88-17.97Q396.15-14.99 396.15-10.64L396.15-10.64Q396.15-4.69 400.45-1.56L400.45-1.56Q403.28 0.49 406.79 0.49L406.79 0.49Q411.63 0.49 414.75-2.93L414.75-2.93Q417.58-6.01 417.58-10.5L417.58-10.5Q417.58-16.46 413.19-19.48L413.19-19.48Q410.46-21.34 406.99-21.34ZM430.47-1.22L430.47-1.22 428.47-1.22 428.47-11.96Q428.57-16.41 431.5-18.36L431.5-18.36Q432.77-19.14 434.04-19.14L434.04-19.14Q437.02-19.14 437.99-16.31L437.99-16.31Q438.33-15.23 438.33-13.96L438.33-13.96 438.33-4.1Q438.33-1.9 437.06-1.46L437.06-1.46Q436.38-1.22 434.96-1.22L434.96-1.22 434.96 0 446 0Q446-1.07 445.27-1.17L445.27-1.17Q445.07-1.22 444.78-1.22L444.78-1.22 442.48-1.22 442.48-13.43Q442.48-18.55 438.97-20.51L438.97-20.51Q437.46-21.34 435.75-21.34L435.75-21.34Q432.13-21.34 429.74-18.41L429.74-18.41Q428.91-17.43 428.42-16.21L428.42-16.21 428.23-20.8 420.8-20.8 420.8-19.58 424.32-19.58 424.32-4.1Q424.32-1.86 422.95-1.42L422.95-1.42Q422.22-1.22 420.8-1.22L420.8-1.22 420.8 0 431.69 0Q431.69-1.07 430.96-1.17L430.96-1.17Q430.77-1.22 430.47-1.22ZM458.69-1.22L458.69-1.22 456.4-1.22 456.4-20.8 448.54-20.8 448.54-19.58 452.25-19.58 452.25-4.1Q452.25-1.86 450.73-1.42L450.73-1.42Q450-1.22 448.54-1.22L448.54-1.22 448.54 0 459.91 0Q459.91-1.07 459.18-1.17L459.18-1.17Q458.99-1.22 458.69-1.22ZM456.93-27.78L456.93-27.78Q456.93-29.54 455.37-30.37L455.37-30.37Q454.74-30.66 454.1-30.66L454.1-30.66Q452.3-30.66 451.52-29.05L451.52-29.05Q451.22-28.42 451.22-27.78L451.22-27.78Q451.22-25.93 452.88-25.15L452.88-25.15Q453.47-24.9 454.1-24.9L454.1-24.9Q455.86-24.9 456.64-26.51L456.64-26.51Q456.93-27.15 456.93-27.78ZM462.21-20.75L462.21-19.53 465.62-19.53 465.62-6.05Q465.97 0.34 471.53 0.54L471.53 0.54Q476.12 0.54 477.24-4.98L477.24-4.98Q477.24-5.03 477.24-5.08L477.24-5.08 475.93-5.32Q474.9-0.98 472.41-0.93L472.41-0.93Q469.82-1.03 469.77-4.69L469.77-4.69 469.77-19.53 477.15-19.53 477.15-20.75 469.77-20.75 469.77-26.42 465.62-25.39 465.62-20.75 462.21-20.75ZM483.98-10.45L483.98-10.45Q484.03-20.07 490.04-20.12L490.04-20.12Q496.04-20.02 496.09-10.64L496.09-10.64Q496.04-0.78 490.13-0.73L490.13-0.73Q484.03-0.83 483.98-10.45ZM490.18-21.34L490.18-21.34Q485.25-21.34 482.08-17.97L482.08-17.97Q479.34-14.99 479.34-10.64L479.34-10.64Q479.34-4.69 483.64-1.56L483.64-1.56Q486.47 0.49 489.99 0.49L489.99 0.49Q494.82 0.49 497.95-2.93L497.95-2.93Q500.78-6.01 500.78-10.5L500.78-10.5Q500.78-16.46 496.38-19.48L496.38-19.48Q493.65-21.34 490.18-21.34ZM515.28-1.22L515.28-1.22 511.76-1.22 511.76-11.96Q512.1-16.16 514.59-18.26L514.59-18.26Q515.42-18.95 516.01-18.95L516.01-18.95Q516.74-18.95 517.43-17.72L517.43-17.72Q518.21-16.36 518.99-16.11L518.99-16.11Q519.33-16.02 519.67-16.02L519.67-16.02Q521.28-16.02 521.77-17.53L521.77-17.53Q521.87-17.92 521.87-18.26L521.87-18.26Q521.87-20.51 519.62-21L519.62-21Q519.13-21.09 518.6-21.09L518.6-21.09Q515.57-21.09 513.23-18.55L513.23-18.55Q512.25-17.48 511.66-16.11L511.66-16.11 511.47-20.8 504.1-20.8 504.1-19.58 507.56-19.58 507.56-4.1Q507.56-1.86 506.24-1.42L506.24-1.42Q505.56-1.22 504.1-1.22L504.1-1.22 504.1 0 516.5 0Q516.5-1.07 515.77-1.17L515.77-1.17Q515.57-1.22 515.28-1.22ZM533.68-1.22L533.68-1.22 531.39-1.22 531.39-20.8 523.53-20.8 523.53-19.58 527.24-19.58 527.24-4.1Q527.24-1.86 525.72-1.42L525.72-1.42Q524.99-1.22 523.53-1.22L523.53-1.22 523.53 0 534.9 0Q534.9-1.07 534.17-1.17L534.17-1.17Q533.98-1.22 533.68-1.22ZM531.92-27.78L531.92-27.78Q531.92-29.54 530.36-30.37L530.36-30.37Q529.73-30.66 529.09-30.66L529.09-30.66Q527.29-30.66 526.5-29.05L526.5-29.05Q526.21-28.42 526.21-27.78L526.21-27.78Q526.21-25.93 527.87-25.15L527.87-25.15Q528.46-24.9 529.09-24.9L529.09-24.9Q530.85-24.9 531.63-26.51L531.63-26.51Q531.92-27.15 531.92-27.78ZM547.3-1.22L547.3-1.22 545.3-1.22 545.3-11.96Q545.4-16.41 548.33-18.36L548.33-18.36Q549.6-19.14 550.87-19.14L550.87-19.14Q553.85-19.14 554.82-16.31L554.82-16.31Q555.16-15.23 555.16-13.96L555.16-13.96 555.16-4.1Q555.16-1.9 553.9-1.46L553.9-1.46Q553.21-1.22 551.8-1.22L551.8-1.22 551.8 0 562.83 0Q562.83-1.07 562.1-1.17L562.1-1.17Q561.9-1.22 561.61-1.22L561.61-1.22 559.31-1.22 559.31-13.43Q559.31-18.55 555.8-20.51L555.8-20.51Q554.29-21.34 552.58-21.34L552.58-21.34Q548.96-21.34 546.57-18.41L546.57-18.41Q545.74-17.43 545.25-16.21L545.25-16.21 545.06-20.8 537.64-20.8 537.64-19.58 541.15-19.58 541.15-4.1Q541.15-1.86 539.78-1.42L539.78-1.42Q539.05-1.22 537.64-1.22L537.64-1.22 537.64 0 548.52 0Q548.52-1.07 547.79-1.17L547.79-1.17Q547.6-1.22 547.3-1.22ZM570.69-13.53L570.69-13.53Q570.69-19.63 574.6-20.07L574.6-20.07Q574.94-20.12 575.28-20.12L575.28-20.12Q579.28-20.12 579.77-15.14L579.77-15.14Q579.82-14.4 579.82-13.53L579.82-13.53Q579.38-7.08 575.28-6.79L575.28-6.79Q570.98-6.79 570.69-12.65L570.69-12.65Q570.69-13.09 570.69-13.53ZM575.33-21.34L575.33-21.34Q570.64-21.34 568.05-18.31L568.05-18.31Q566.34-16.26 566.34-13.53L566.34-13.53Q566.34-9.86 569.86-7.37L569.86-7.37Q570.3-7.08 570.69-6.84L570.69-6.84Q567.66-6.84 566.78-4.2L566.78-4.2Q566.59-3.52 566.59-2.78L566.59-2.78Q566.64-0.2 568.64 1.07L568.64 1.07Q567.08 2.78 567.08 4.44L567.08 4.44Q567.08 7.13 570.3 8.45L570.3 8.45Q572.4 9.33 575.38 9.33L575.38 9.33Q582.9 9.33 585.29 5.71L585.29 5.71Q586.07 4.49 586.07 3.13L586.07 3.13Q586.07-1.22 581.14-1.86L581.14-1.86Q580.5-1.95 579.82-1.95L579.82-1.95 570.69-2.15Q568.59-2.29 568.54-4L568.54-4Q568.54-5.22 570.01-5.52L570.01-5.52Q570.35-5.62 570.74-5.62L570.74-5.62 575.08-5.57 575.23-5.57Q579.72-5.57 582.36-8.59L582.36-8.59Q584.17-10.74 584.17-13.57L584.17-13.57Q584.12-17.24 581.38-19.38L581.38-19.38Q582.12-21.09 583.43-21.24L583.43-21.24Q584.12-21.24 584.95-20.46L584.95-20.46Q585.48-19.97 585.97-19.97L585.97-19.97Q587.19-19.97 587.44-21.19L587.44-21.19Q587.49-21.44 587.49-21.58L587.49-21.58Q587.49-23.19 585.92-23.78L585.92-23.78Q585.39-23.97 584.8-23.97L584.8-23.97Q582.51-23.97 581.09-21.78L581.09-21.78Q580.55-21 580.31-20.12L580.31-20.12Q578.06-21.34 575.33-21.34ZM575.38 8.06L575.38 8.06Q570.4 8.06 569.08 5.57L569.08 5.57Q568.74 4.88 568.74 4.2L568.74 4.2Q568.79 2.93 569.81 1.66L569.81 1.66Q570.69 1.9 571.52 1.9L571.52 1.9 579.53 2Q582.95 2.05 583.53 3.42L583.53 3.42Q583.73 3.91 583.73 4.44L583.73 4.44Q583.73 6.64 579.67 7.62L579.67 7.62Q577.72 8.06 575.38 8.06ZM616.24 0.49L616.24 0.49Q619.76 0.49 620.44-3.03L620.44-3.03Q620.54-3.76 620.59-4.59L620.59-4.59 619.32-4.64Q618.98-1.12 617.46-1.07L617.46-1.07Q616.24-1.17 616.19-3.56L616.19-3.56 616.19-13.87Q616.09-21.29 608.14-21.34L608.14-21.34Q602.47-21.34 600.62-18.75L600.62-18.75Q600.03-17.92 600.03-17.09L600.03-17.09Q600.03-15.53 601.49-15.19L601.49-15.19Q601.84-15.14 602.13-15.14L602.13-15.14Q603.45-15.14 604.03-16.7L604.03-16.7Q604.72-18.6 604.86-18.85L604.86-18.85Q605.79-20.12 607.65-20.12L607.65-20.12Q611.99-20.02 612.04-15.04L612.04-15.04 612.04-11.96Q599.88-11.91 598.86-6.35L598.86-6.35Q598.76-5.81 598.76-5.18L598.76-5.18Q598.76-1.32 602.13 0L602.13 0Q603.4 0.49 604.86 0.49L604.86 0.49Q608.43 0.49 610.77-1.95L610.77-1.95Q611.65-2.88 612.09-3.96L612.09-3.96Q612.73 0.44 616.24 0.49ZM606.67-1.51L606.67-1.51Q603.59-1.51 603.16-4.93L603.16-4.93Q603.11-5.42 603.11-5.96L603.11-5.96Q603.11-9.23 606.72-10.11L606.72-10.11Q608.62-10.55 612.04-10.6L612.04-10.6 612.04-6.54Q611.21-3.17 608.53-1.9L608.53-1.9Q607.55-1.51 606.67-1.51ZM631.86-1.22L631.86-1.22 629.86-1.22 629.86-11.96Q629.96-16.41 632.89-18.36L632.89-18.36Q634.16-19.14 635.43-19.14L635.43-19.14Q638.41-19.14 639.38-16.31L639.38-16.31Q639.72-15.23 639.72-13.96L639.72-13.96 639.72-4.1Q639.72-1.9 638.46-1.46L638.46-1.46Q637.77-1.22 636.36-1.22L636.36-1.22 636.36 0 647.39 0Q647.39-1.07 646.66-1.17L646.66-1.17Q646.46-1.22 646.17-1.22L646.17-1.22 643.88-1.22 643.88-13.43Q643.88-18.55 640.36-20.51L640.36-20.51Q638.85-21.34 637.14-21.34L637.14-21.34Q633.52-21.34 631.13-18.41L631.13-18.41Q630.3-17.43 629.81-16.21L629.81-16.21 629.62-20.8 622.2-20.8 622.2-19.58 625.71-19.58 625.71-4.1Q625.71-1.86 624.34-1.42L624.34-1.42Q623.61-1.22 622.2-1.22L622.2-1.22 622.2 0 633.08 0Q633.08-1.07 632.35-1.17L632.35-1.17Q632.16-1.22 631.86-1.22ZM666.63-5.08L667.07 0 674.39 0Q674.39-1.03 673.76-1.17L673.76-1.17Q673.51-1.22 673.22-1.22L673.22-1.22 670.78-1.22 670.73-31.74 661.94-31.74 661.94-30.52 666.53-30.52 666.53-18.85Q664.09-21.34 660.18-21.34L660.18-21.34Q655.01-21.34 652.22-16.89L652.22-16.89Q650.37-13.82 650.37-9.91L650.37-9.91Q650.37-3.91 654.22-1.07L654.22-1.07Q656.37 0.49 659.01 0.49L659.01 0.49Q664.38 0.39 666.63-5.08L666.63-5.08ZM655.01-10.5L655.01-10.5Q655.01-17.33 658.52-19.38L658.52-19.38Q659.64-20.07 661.06-20.07L661.06-20.07Q664.53-20.07 665.94-16.21L665.94-16.21Q666.68-14.16 666.68-11.43L666.68-11.43Q666.68-5.27 663.7-2.69L663.7-2.69Q662.28-1.51 660.47-1.51L660.47-1.51Q656.71-1.51 655.49-6.3L655.49-6.3Q655.01-8.15 655.01-10.5ZM723.26-28.03L723.26-29.3 714.91-29.3 704.76-6.01 693.62-29.3 686.3-29.3 686.3-28.03 690.21-28.03 690.21-1.27 686.3-1.27 686.3 0 696.07 0Q696.07-1.07 695.28-1.22L695.28-1.22Q695.04-1.27 694.8-1.27L694.8-1.27 692.16-1.27 692.16-21.78 702.8 0.29 703.83 0.29 714.91-24.76 714.91-1.27 711.01-1.27 711.01 0 723.26 0Q723.26-1.07 722.48-1.22L722.48-1.22Q722.24-1.27 721.99-1.27L721.99-1.27 719.36-1.27 719.36-28.03 723.26-28.03ZM743.57 0.49L743.57 0.49Q747.09 0.49 747.77-3.03L747.77-3.03Q747.87-3.76 747.92-4.59L747.92-4.59 746.65-4.64Q746.31-1.12 744.79-1.07L744.79-1.07Q743.57-1.17 743.52-3.56L743.52-3.56 743.52-13.87Q743.43-21.29 735.47-21.34L735.47-21.34Q729.8-21.34 727.95-18.75L727.95-18.75Q727.36-17.92 727.36-17.09L727.36-17.09Q727.36-15.53 728.83-15.19L728.83-15.19Q729.17-15.14 729.46-15.14L729.46-15.14Q730.78-15.14 731.37-16.7L731.37-16.7Q732.05-18.6 732.2-18.85L732.2-18.85Q733.12-20.12 734.98-20.12L734.98-20.12Q739.32-20.02 739.37-15.04L739.37-15.04 739.37-11.96Q727.21-11.91 726.19-6.35L726.19-6.35Q726.09-5.81 726.09-5.18L726.09-5.18Q726.09-1.32 729.46 0L729.46 0Q730.73 0.49 732.2 0.49L732.2 0.49Q735.76 0.49 738.1-1.95L738.1-1.95Q738.98-2.88 739.42-3.96L739.42-3.96Q740.06 0.44 743.57 0.49ZM734-1.51L734-1.51Q730.93-1.51 730.49-4.93L730.49-4.93Q730.44-5.42 730.44-5.96L730.44-5.96Q730.44-9.23 734.05-10.11L734.05-10.11Q735.96-10.55 739.37-10.6L739.37-10.6 739.37-6.54Q738.54-3.17 735.86-1.9L735.86-1.9Q734.88-1.51 734-1.51ZM759.19-1.22L759.19-1.22 757.19-1.22 757.19-11.96Q757.29-16.41 760.22-18.36L760.22-18.36Q761.49-19.14 762.76-19.14L762.76-19.14Q765.74-19.14 766.71-16.31L766.71-16.31Q767.06-15.23 767.06-13.96L767.06-13.96 767.06-4.1Q767.06-1.9 765.79-1.46L765.79-1.46Q765.1-1.22 763.69-1.22L763.69-1.22 763.69 0 774.72 0Q774.72-1.07 773.99-1.17L773.99-1.17Q773.79-1.22 773.5-1.22L773.5-1.22 771.21-1.22 771.21-13.43Q771.21-18.55 767.69-20.51L767.69-20.51Q766.18-21.34 764.47-21.34L764.47-21.34Q760.85-21.34 758.46-18.41L758.46-18.41Q757.63-17.43 757.14-16.21L757.14-16.21 756.95-20.8 749.53-20.8 749.53-19.58 753.04-19.58 753.04-4.1Q753.04-1.86 751.68-1.42L751.68-1.42Q750.94-1.22 749.53-1.22L749.53-1.22 749.53 0 760.42 0Q760.42-1.07 759.68-1.17L759.68-1.17Q759.49-1.22 759.19-1.22ZM794.89 0.49L794.89 0.49Q798.4 0.49 799.08-3.03L799.08-3.03Q799.18-3.76 799.23-4.59L799.23-4.59 797.96-4.64Q797.62-1.12 796.11-1.07L796.11-1.07Q794.89-1.17 794.84-3.56L794.84-3.56 794.84-13.87Q794.74-21.29 786.78-21.34L786.78-21.34Q781.12-21.34 779.26-18.75L779.26-18.75Q778.67-17.92 778.67-17.09L778.67-17.09Q778.67-15.53 780.14-15.19L780.14-15.19Q780.48-15.14 780.77-15.14L780.77-15.14Q782.09-15.14 782.68-16.7L782.68-16.7Q783.36-18.6 783.51-18.85L783.51-18.85Q784.44-20.12 786.29-20.12L786.29-20.12Q790.64-20.02 790.69-15.04L790.69-15.04 790.69-11.96Q778.53-11.91 777.5-6.35L777.5-6.35Q777.41-5.81 777.41-5.18L777.41-5.18Q777.41-1.32 780.77 0L780.77 0Q782.04 0.49 783.51 0.49L783.51 0.49Q787.07 0.49 789.42-1.95L789.42-1.95Q790.3-2.88 790.74-3.96L790.74-3.96Q791.37 0.44 794.89 0.49ZM785.32-1.51L785.32-1.51Q782.24-1.51 781.8-4.93L781.8-4.93Q781.75-5.42 781.75-5.96L781.75-5.96Q781.75-9.23 785.36-10.11L785.36-10.11Q787.27-10.55 790.69-10.6L790.69-10.6 790.69-6.54Q789.86-3.17 787.17-1.9L787.17-1.9Q786.19-1.51 785.32-1.51ZM806.21-13.53L806.21-13.53Q806.21-19.63 810.12-20.07L810.12-20.07Q810.46-20.12 810.8-20.12L810.8-20.12Q814.81-20.12 815.29-15.14L815.29-15.14Q815.34-14.4 815.34-13.53L815.34-13.53Q814.9-7.08 810.8-6.79L810.8-6.79Q806.5-6.79 806.21-12.65L806.21-12.65Q806.21-13.09 806.21-13.53ZM810.85-21.34L810.85-21.34Q806.16-21.34 803.57-18.31L803.57-18.31Q801.87-16.26 801.87-13.53L801.87-13.53Q801.87-9.86 805.38-7.37L805.38-7.37Q805.82-7.08 806.21-6.84L806.21-6.84Q803.18-6.84 802.31-4.2L802.31-4.2Q802.11-3.52 802.11-2.78L802.11-2.78Q802.16-0.2 804.16 1.07L804.16 1.07Q802.6 2.78 802.6 4.44L802.6 4.44Q802.6 7.13 805.82 8.45L805.82 8.45Q807.92 9.33 810.9 9.33L810.9 9.33Q818.42 9.33 820.81 5.71L820.81 5.71Q821.59 4.49 821.59 3.13L821.59 3.13Q821.59-1.22 816.66-1.86L816.66-1.86Q816.03-1.95 815.34-1.95L815.34-1.95 806.21-2.15Q804.11-2.29 804.06-4L804.06-4Q804.06-5.22 805.53-5.52L805.53-5.52Q805.87-5.62 806.26-5.62L806.26-5.62 810.61-5.57 810.75-5.57Q815.24-5.57 817.88-8.59L817.88-8.59Q819.69-10.74 819.69-13.57L819.69-13.57Q819.64-17.24 816.9-19.38L816.9-19.38Q817.64-21.09 818.96-21.24L818.96-21.24Q819.64-21.24 820.47-20.46L820.47-20.46Q821.01-19.97 821.49-19.97L821.49-19.97Q822.72-19.97 822.96-21.19L822.96-21.19Q823.01-21.44 823.01-21.58L823.01-21.58Q823.01-23.19 821.45-23.78L821.45-23.78Q820.91-23.97 820.32-23.97L820.32-23.97Q818.03-23.97 816.61-21.78L816.61-21.78Q816.07-21 815.83-20.12L815.83-20.12Q813.58-21.34 810.85-21.34ZM810.9 8.06L810.9 8.06Q805.92 8.06 804.6 5.57L804.6 5.57Q804.26 4.88 804.26 4.2L804.26 4.2Q804.31 2.93 805.33 1.66L805.33 1.66Q806.21 1.9 807.04 1.9L807.04 1.9 815.05 2Q818.47 2.05 819.05 3.42L819.05 3.42Q819.25 3.91 819.25 4.44L819.25 4.44Q819.25 6.64 815.2 7.62L815.2 7.62Q813.24 8.06 810.9 8.06ZM835.41-20.12L835.41-20.12Q838.73-20.12 839.7-17.09L839.7-17.09Q840-16.16 840-15.14L840-15.14Q840-12.74 837.85-12.21L837.85-12.21Q836.63-11.91 834.48-11.96L834.48-11.96 829.7-12.11Q829.89-17.87 833.21-19.58L833.21-19.58Q834.24-20.12 835.41-20.12ZM844.05-4.74L844.05-4.74 842.83-5.18Q841.27-1.76 837.85-1.03L837.85-1.03Q837.07-0.88 836.34-0.88L836.34-0.88Q831.16-0.88 829.99-7.42L829.99-7.42Q829.74-8.94 829.7-10.74L829.7-10.74 835.31-10.64Q841.56-10.55 843.27-11.91L843.27-11.91Q844.39-12.89 844.39-14.55L844.39-14.55Q844.39-18.02 840.88-20.02L840.88-20.02Q838.44-21.34 835.31-21.34L835.31-21.34Q829.4-21.34 826.62-16.6L826.62-16.6Q825.06-13.87 825.06-10.3L825.06-10.3Q825.06-4.05 829.6-1.12L829.6-1.12Q832.19 0.49 835.46 0.49L835.46 0.49Q840.93 0.49 843.42-3.47L843.42-3.47Q843.76-4.1 844.05-4.74ZM856.94-1.22L856.94-1.22 854.99-1.22 854.99-11.96Q855.08-16.21 857.77-18.21L857.77-18.21Q858.99-19.14 860.26-19.14L860.26-19.14Q862.6-19.14 863.48-16.46L863.48-16.46Q863.82-15.33 863.82-13.96L863.82-13.96 863.82-4.1Q863.82-1.9 862.85-1.46L862.85-1.46Q862.16-1.22 860.7-1.22L860.7-1.22 860.7 0 871.15 0Q871.15-1.07 870.42-1.17L870.42-1.17Q870.22-1.22 869.93-1.22L869.93-1.22 868.02-1.22 868.02-13.43 868.02-13.96Q868.8-17.53 871.34-18.8L871.34-18.8Q872.22-19.24 873.05-19.24L873.05-19.24Q875.49-19.24 876.47-16.65L876.47-16.65Q876.91-15.48 876.91-13.96L876.91-13.96 876.91-4.1Q876.91-1.9 875.88-1.46L875.88-1.46Q875.2-1.22 873.74-1.22L873.74-1.22 873.74 0 884.58 0Q884.58-1.07 883.84-1.17L883.84-1.17Q883.65-1.22 883.35-1.22L883.35-1.22 881.06-1.22 881.06-13.48Q881.06-18.41 877.79-20.46L877.79-20.46Q876.32-21.34 874.61-21.34L874.61-21.34Q870.51-21.34 868.22-17.33L868.22-17.33Q867.93-16.8 867.68-16.21L867.68-16.21Q866.75-19.87 863.82-21L863.82-21Q862.94-21.34 862.02-21.34L862.02-21.34Q858.31-21.34 855.96-18.12L855.96-18.12Q855.38-17.24 854.94-16.26L854.94-16.26 854.74-20.8 847.32-20.8 847.32-19.58 850.84-19.58 850.84-4.1Q850.84-1.86 849.47-1.42L849.47-1.42Q848.74-1.22 847.32-1.22L847.32-1.22 847.32 0 858.11 0Q858.11-1.07 857.43-1.17L857.43-1.17Q857.18-1.22 856.94-1.22ZM897.9-20.12L897.9-20.12Q901.22-20.12 902.2-17.09L902.2-17.09Q902.49-16.16 902.49-15.14L902.49-15.14Q902.49-12.74 900.34-12.21L900.34-12.21Q899.12-11.91 896.98-11.96L896.98-11.96 892.19-12.11Q892.39-17.87 895.71-19.58L895.71-19.58Q896.73-20.12 897.9-20.12ZM906.55-4.74L906.55-4.74 905.32-5.18Q903.76-1.76 900.34-1.03L900.34-1.03Q899.56-0.88 898.83-0.88L898.83-0.88Q893.65-0.88 892.48-7.42L892.48-7.42Q892.24-8.94 892.19-10.74L892.19-10.74 897.81-10.64Q904.06-10.55 905.76-11.91L905.76-11.91Q906.89-12.89 906.89-14.55L906.89-14.55Q906.89-18.02 903.37-20.02L903.37-20.02Q900.93-21.34 897.81-21.34L897.81-21.34Q891.9-21.34 889.11-16.6L889.11-16.6Q887.55-13.87 887.55-10.3L887.55-10.3Q887.55-4.05 892.09-1.12L892.09-1.12Q894.68 0.49 897.95 0.49L897.95 0.49Q903.42 0.49 905.91-3.47L905.91-3.47Q906.25-4.1 906.55-4.74ZM919.48-1.22L919.48-1.22 917.48-1.22 917.48-11.96Q917.58-16.41 920.51-18.36L920.51-18.36Q921.78-19.14 923.05-19.14L923.05-19.14Q926.03-19.14 927-16.31L927-16.31Q927.34-15.23 927.34-13.96L927.34-13.96 927.34-4.1Q927.34-1.9 926.07-1.46L926.07-1.46Q925.39-1.22 923.97-1.22L923.97-1.22 923.97 0 935.01 0Q935.01-1.07 934.28-1.17L934.28-1.17Q934.08-1.22 933.79-1.22L933.79-1.22 931.49-1.22 931.49-13.43Q931.49-18.55 927.98-20.51L927.98-20.51Q926.46-21.34 924.76-21.34L924.76-21.34Q921.14-21.34 918.75-18.41L918.75-18.41Q917.92-17.43 917.43-16.21L917.43-16.21 917.24-20.8 909.81-20.8 909.81-19.58 913.33-19.58 913.33-4.1Q913.33-1.86 911.96-1.42L911.96-1.42Q911.23-1.22 909.81-1.22L909.81-1.22 909.81 0 920.7 0Q920.7-1.07 919.97-1.17L919.97-1.17Q919.78-1.22 919.48-1.22ZM937.06-20.75L937.06-19.53 940.48-19.53 940.48-6.05Q940.82 0.34 946.38 0.54L946.38 0.54Q950.97 0.54 952.1-4.98L952.1-4.98Q952.1-5.03 952.1-5.08L952.1-5.08 950.78-5.32Q949.75-0.98 947.26-0.93L947.26-0.93Q944.68-1.03 944.63-4.69L944.63-4.69 944.63-19.53 952-19.53 952-20.75 944.63-20.75 944.63-26.42 940.48-25.39 940.48-20.75 937.06-20.75ZM968.69 0L982.66 0Q982.66-1.07 981.88-1.22L981.88-1.22Q981.63-1.27 981.39-1.27L981.39-1.27 978.02-1.27 978.02-28.03 980.51-28.03Q984.56-27.98 985.88-23L985.88-23 986.81-19.53 988.18-19.53 987.98-29.3 963.62-29.3 963.37-19.53 964.74-19.53 965.67-23Q967.03-27.98 971.09-28.03L971.09-28.03 973.33-28.03 973.33-1.27 968.69-1.27 968.69 0ZM996.18-10.45L996.18-10.45Q996.23-20.07 1002.24-20.12L1002.24-20.12Q1008.24-20.02 1008.29-10.64L1008.29-10.64Q1008.24-0.78 1002.33-0.73L1002.33-0.73Q996.23-0.83 996.18-10.45ZM1002.38-21.34L1002.38-21.34Q997.45-21.34 994.28-17.97L994.28-17.97Q991.54-14.99 991.54-10.64L991.54-10.64Q991.54-4.69 995.84-1.56L995.84-1.56Q998.67 0.49 1002.19 0.49L1002.19 0.49Q1007.02 0.49 1010.15-2.93L1010.15-2.93Q1012.98-6.01 1012.98-10.5L1012.98-10.5Q1012.98-16.46 1008.58-19.48L1008.58-19.48Q1005.85-21.34 1002.38-21.34ZM1021.33-10.45L1021.33-10.45Q1021.37-20.07 1027.38-20.12L1027.38-20.12Q1033.39-20.02 1033.43-10.64L1033.43-10.64Q1033.39-0.78 1027.48-0.73L1027.48-0.73Q1021.37-0.83 1021.33-10.45ZM1027.53-21.34L1027.53-21.34Q1022.6-21.34 1019.42-17.97L1019.42-17.97Q1016.69-14.99 1016.69-10.64L1016.69-10.64Q1016.69-4.69 1020.98-1.56L1020.98-1.56Q1023.82 0.49 1027.33 0.49L1027.33 0.49Q1032.17 0.49 1035.29-2.93L1035.29-2.93Q1038.12-6.01 1038.12-10.5L1038.12-10.5Q1038.12-16.46 1033.73-19.48L1033.73-19.48Q1030.99-21.34 1027.53-21.34ZM1051.89-1.22L1051.89-1.22 1049.25-1.22 1049.25-31.74 1041.39-31.74 1041.39-30.52 1045.1-30.52 1045.1-4.1Q1045.1-1.9 1043.78-1.46L1043.78-1.46Q1043-1.22 1041.39-1.22L1041.39-1.22 1041.39 0 1053.06 0Q1053.06-1.07 1052.38-1.17L1052.38-1.17Q1052.13-1.22 1051.89-1.22Z" opacity="1" transform="matrix(1,0,0,1,0,0)" fill="#000000" class="slogan-text-1" data-fill-palette-color="secondary" id="text-1"></path></svg></g></svg></g></svg></g></svg></g><g transform="matrix(1,0,0,1,87.83576018591036,0)"><svg viewBox="0 0 219.84847962817926 219.84847962817926" height="219.84847962817926" width="219.84847962817926"><g><svg></svg></g><g id="icon-0"><svg viewBox="0 0 219.84847962817926 219.84847962817926" height="219.84847962817926" width="219.84847962817926"><g><path d="M0 109.924c0-60.709 49.215-109.924 109.924-109.924 60.709 0 109.924 49.215 109.924 109.924 0 60.709-49.215 109.924-109.924 109.924-60.709 0-109.924-49.215-109.924-109.924zM109.924 209.799c55.159 0 99.875-44.716 99.875-99.875 0-55.159-44.716-99.875-99.875-99.875-55.159 0-99.875 44.716-99.875 99.875 0 55.159 44.716 99.875 99.875 99.875z" data-fill-palette-color="accent" fill="#c8c8c8" stroke="transparent"></path></g><g transform="matrix(1,0,0,1,53.17886531668704,54.87805063657561)"><svg viewBox="0 0 113.49074899480519 110.09237835502805" height="110.09237835502805" width="113.49074899480519"><g><svg xmlns="http://www.w3.org/2000/svg" xmlns:xlink="http://www.w3.org/1999/xlink" version="1.1" x="0" y="0" viewBox="11.171623798683965 12.334 77.65737543917201 75.33200049018201" enable-background="new 0 0 100 100" xml:space="preserve" height="110.09237835502805" width="113.49074899480519" class="icon-dxe-0" data-fill-palette-color="accent" id="dxe-0"><g fill="#c8c8c8" data-fill-palette-color="accent"><path fill="#c8c8c8" d="M88.771 44.07A0.8 0.8 0 0 0 88.201 43.587C87.411 43.363 79.809 41.383 70.561 45.148 70.279 45.263 70.012 45.388 69.74 45.51 69.898 42.182 68.929 39.573 68.795 39.23A0.8 0.8 0 0 0 68.466 38.823 0.8 0.8 0 0 0 67.89 38.716C67.09 38.813 60.816 39.732 57.358 45.185A11.8 11.8 0 0 0 55.866 48.703C54.557 43.451 52.497 36.872 49.448 31.32 42.48 18.63 30.57 17.928 28.58 17.904L28.503 17.871C28.439 15.09 26.635 12.334 22.686 12.334 18.569 12.334 17.056 15.165 17 17.872 15.273 18.58 13.574 19.491 12.614 20.592 11.006 22.438 10.709 25.565 11.892 28.196 12.92 30.48 14.784 31.801 17.07 31.821 20.056 31.821 21.816 30.105 22.769 28.655 23.72 30.105 25.471 31.821 28.433 31.821L28.497 31.82C30.719 31.801 32.582 30.48 33.61 28.196 34.794 25.565 34.497 22.438 32.888 20.592A6 6 0 0 0 32.159 19.904C36.424 20.775 43.337 23.516 48.043 32.089 53.206 41.494 55.48 53.972 56.034 57.417H44.502A0.8 0.8 0 0 0 43.734 58.443L52.205 87.093A0.8 0.8 0 0 0 52.973 87.666H65.389A0.8 0.8 0 0 0 66.157 87.093L74.629 58.443A0.8 0.8 0 0 0 73.861 57.417H72.539A28 28 0 0 0 75.316 56.374C84.567 52.302 88.415 45.348 88.723 44.767A0.8 0.8 0 0 0 88.771 44.07M18.648 17.253C18.836 15.881 19.638 13.934 22.685 13.934 25.837 13.934 26.65 15.959 26.847 17.251 26.896 17.565 26.909 17.837 26.909 18.025 26.909 18.26 26.795 18.553 26.629 18.869 25.971 20.12 24.204 21.858 22.692 23.083 21.222 21.858 19.507 20.123 18.868 18.872 18.706 18.556 18.595 18.262 18.595 18.025 18.595 17.811 18.608 17.544 18.648 17.253M32.151 27.54C31.792 28.34 30.713 30.202 28.484 30.221H28.433C25.47 30.221 24.074 27.988 23.505 26.657A0.798 0.798 0 0 0 22.035 26.657C21.467 27.988 20.065 30.221 17.019 30.221 14.789 30.202 13.711 28.34 13.352 27.54 12.43 25.492 12.627 23.012 13.821 21.644 14.541 20.818 15.895 20.072 17.371 19.451 18.439 21.707 21.479 24.179 22.192 24.736A0.794 0.794 0 0 0 23.17 24.743C23.9 24.185 27.01 21.722 28.113 19.467 28.14 19.475 28.171 19.477 28.199 19.481 29.649 20.097 30.973 20.832 31.682 21.645 32.877 23.012 33.073 25.492 32.151 27.54M64.791 86.066H53.57L45.572 59.015H56.884C56.912 59.018 56.94 59.031 56.969 59.031A1 1 0 0 0 57.076 59.024C57.086 59.023 57.094 59.017 57.103 59.015H72.79zM58.709 46.041C61.301 41.953 65.846 40.723 67.502 40.4 67.816 41.439 68.352 43.713 68.057 46.321 62.294 49.352 58.953 53.633 57.545 55.779 57.012 53.607 56.488 49.543 58.709 46.041M74.671 54.908C69.587 57.147 64.763 57.336 61.543 57.082A25 25 0 0 1 58.845 56.729C58.95 56.57 59.072 56.392 59.201 56.207A27.8 27.8 0 0 1 67.648 48.381 27 27 0 0 1 69.536 47.367 25 25 0 0 1 71.165 46.63C78.235 43.751 84.395 44.455 86.767 44.903 85.439 46.919 81.657 51.833 74.671 54.908" data-fill-palette-color="accent"></path><path fill="#c8c8c8" d="M46.026 32.699C45.341 31.914 44.174 31.27 42.978 30.768 42.864 28.751 41.527 26.805 38.665 26.805 35.682 26.805 34.545 28.879 34.443 30.768 33.247 31.271 32.08 31.914 31.396 32.699 30.206 34.067 29.982 36.373 30.852 38.306 31.604 39.977 33.03 40.982 34.711 40.996 36.726 40.996 37.982 39.945 38.72 38.951 39.689 40.265 41.087 40.996 42.712 40.996L42.759 40.995C44.394 40.981 45.819 39.976 46.571 38.305 47.442 36.372 47.218 34.066 46.026 32.699M36.136 30.145C36.358 29.286 36.99 28.406 38.665 28.406 40.395 28.406 41.028 29.343 41.262 30.137 41.371 30.508 41.402 30.852 41.402 31.049 41.402 31.23 41.284 31.483 41.096 31.773 40.625 32.499 39.669 33.478 38.672 34.301 37.704 33.479 36.777 32.502 36.32 31.776 36.137 31.486 36.022 31.231 36.022 31.049 36.022 30.781 36.053 30.465 36.136 30.145M45.112 37.649C44.878 38.17 44.177 39.384 42.746 39.396H42.713C40.859 39.396 39.921 38.11 39.46 37.031A0.798 0.798 0 0 0 37.989 37.032C37.613 37.915 36.688 39.396 34.679 39.396 33.246 39.384 32.546 38.17 32.312 37.65 31.699 36.288 31.822 34.648 32.603 33.751 33.055 33.232 33.888 32.761 34.816 32.355 35.629 33.876 37.493 35.425 38.172 35.958A0.794 0.794 0 0 0 39.15 35.965C39.849 35.432 41.767 33.878 42.601 32.353 43.531 32.758 44.366 33.231 44.82 33.75 45.603 34.647 45.726 36.288 45.112 37.649" data-fill-palette-color="accent"></path><path fill="#c8c8c8" d="M45.562 48.763C45.57 48.763 45.579 48.767 45.586 48.767 45.609 48.767 45.632 48.758 45.655 48.755 45.647 48.755 45.64 48.752 45.633 48.752 45.608 48.752 45.586 48.761 45.562 48.763" data-fill-palette-color="accent"></path><path fill="#c8c8c8" d="M51.5 45.788C50.963 45.172 50.065 44.664 49.137 44.266 49.002 42.639 47.898 41.097 45.586 41.097 43.175 41.097 42.225 42.736 42.105 44.268 41.178 44.666 40.282 45.173 39.745 45.789 38.767 46.912 38.581 48.799 39.291 50.377 39.91 51.752 41.088 52.581 42.479 52.593 44.013 52.593 45.011 51.853 45.629 51.096 46.414 52.061 47.507 52.593 48.766 52.593H48.804C50.159 52.581 51.338 51.751 51.957 50.374 52.666 48.795 52.478 46.909 51.5 45.788M43.863 43.63C44.096 43.109 44.593 42.696 45.586 42.696 46.608 42.696 47.1 43.135 47.341 43.617 47.521 43.976 47.565 44.358 47.565 44.602 47.565 44.746 47.44 44.98 47.229 45.265 46.874 45.744 46.271 46.364 45.593 46.935 44.936 46.365 44.352 45.747 44.007 45.268 43.801 44.983 43.68 44.747 43.68 44.602 43.68 44.281 43.727 43.937 43.863 43.63M50.498 49.718C50.285 50.19 49.781 50.984 48.79 50.992H48.766C47.403 50.992 46.71 50.038 46.37 49.238A0.8 0.8 0 0 0 45.656 48.755C45.633 48.758 45.61 48.767 45.587 48.767 45.579 48.767 45.57 48.763 45.563 48.763A0.79 0.79 0 0 0 44.898 49.239C44.619 49.894 43.933 50.993 42.456 50.993 41.467 50.984 40.963 50.191 40.751 49.721 40.304 48.725 40.39 47.487 40.952 46.841 41.257 46.491 41.828 46.154 42.495 45.852 43.189 47.037 44.574 48.19 45.095 48.598A0.8 0.8 0 0 0 45.564 48.764C45.588 48.762 45.611 48.753 45.635 48.753 45.643 48.753 45.65 48.756 45.657 48.756A0.8 0.8 0 0 0 46.073 48.604C46.609 48.195 48.034 47.039 48.747 45.849 49.416 46.152 49.99 46.49 50.296 46.84 50.866 47.496 50.952 48.706 50.498 49.718" data-fill-palette-color="accent"></path></g></svg></g></svg></g></svg></g></svg></g><g></g></svg></g><defs></defs></svg><rect width="231.4770688189552" height="247.2" fill="none" stroke="none" visibility="hidden"></rect></g></svg></g></svg>